<svg width="530" height="530" viewBox="0 0 530 530" fill="none" xmlns="http://www.w3.org/2000/svg">
<path d="M237.319 101.111C129.933 101.111 42.8794 123.896 42.8794 263.65C42.8794 388.213 129.933 426.189 237.319 426.189" stroke="#FFFDFA" stroke-width="47.4583"/>
<path d="M288.976 426.19C322.581 426.19 354.197 419.086 381.788 406.581C399.957 398.345 469.633 438.625 483.729 426.19C498.419 413.23 457.327 347.395 466.302 330.952C477.494 310.444 483.729 287.655 483.729 263.65C483.728 145.164 396.535 101.111 288.976 101.111" stroke="#FFFDFA" stroke-width="47.4583"/>
<path d="M364.596 230.301L359.872 227.733C354.481 224.8 348.8 221.913 342.829 219.069L342.811 219.061L342.792 219.051C336.936 216.169 330.449 213.6 323.322 211.35L323.304 211.344L323.286 211.338C316.204 209.008 308.389 207.134 299.834 205.724L299.816 205.721L299.8 205.718C291.325 204.228 281.723 203.473 270.977 203.473C254.454 203.473 240.902 205.175 230.23 208.485C219.538 211.833 211.177 216.238 205.006 221.605C198.783 227.016 194.488 233.163 192.017 240.048L192.013 240.061C189.467 247.062 188.192 254.335 188.192 261.897C188.192 266.912 188.739 271.882 189.833 276.811L190.043 277.696C191.133 282.113 192.852 286.338 195.209 290.379C197.698 294.551 200.962 298.449 205.032 302.068C209.03 305.621 214.076 308.748 220.229 311.411C226.36 314.065 233.565 316.2 241.873 317.789L243.458 318.06C251.461 319.369 260.628 320.033 270.977 320.033C281.741 320.033 291.367 319.371 299.867 318.064C308.42 316.652 316.236 314.824 323.322 312.586C330.461 310.332 336.961 307.804 342.829 305.01C348.786 302.078 354.455 299.102 359.835 296.081L364.596 293.408V348.86L362.629 349.681C355.676 352.578 348.672 355.186 341.619 357.505C334.537 359.833 327.218 361.82 319.663 363.467L319.662 363.466C312.083 365.213 304.085 366.52 295.67 367.391C287.329 368.264 278.38 368.698 268.827 368.698C248.538 368.698 229.784 366.525 212.582 362.151L212.578 362.151C195.449 357.771 180.56 351.177 167.969 342.323L167.957 342.315L167.945 342.307C155.418 333.331 145.625 322.159 138.604 308.811L138.6 308.802C131.539 295.277 128.063 279.611 128.062 261.897C128.062 244.187 131.537 228.566 138.6 215.134C145.62 201.686 155.419 190.507 167.959 181.62C180.553 172.668 195.444 166.024 212.578 161.643L212.582 161.641C229.784 157.267 248.538 155.094 268.827 155.094C278.379 155.094 287.326 155.529 295.666 156.401C304.082 157.272 312.082 158.579 319.662 160.326H319.663C327.218 161.973 334.537 163.96 341.619 166.288C348.672 168.607 355.676 171.215 362.629 174.112L364.596 174.932V230.301Z" fill="#FFFDFA" stroke="#FFFDFA" stroke-width="6.39207"/>
</svg>
